<svg xmlns="http://www.w3.org/2000/svg" width="1200" height="960" viewBox="0 0 1200 960"><path fill="#314cf0" d="M0 0h1200v960H0z"/><g stroke="#f0f2f4" opacity=".16"><path d="M100 0v960M300 0v960M500 0v960M700 0v960M900 0v960M1100 0v960M0 80h1200M0 280h1200M0 480h1200M0 680h1200M0 880h1200"/></g><g fill="#eef1ed" font-family="Arial,sans-serif" font-weight="700" font-size="168" letter-spacing="-11"><text x="69" y="321">OUTSIDE</text><text x="415" y="499">THE</text><text x="257" y="682">GRID.</text></g><g stroke="#d2f962" stroke-width="2" fill="none"><path d="m79 112 48 48m0-48-48 48M1040 725l48 48m0-48-48 48"/><circle cx="180" cy="600" r="80"/><path d="M100 600h160M180 520v160"/></g><path d="M947 180h104v104H947z" fill="#d2f962" transform="rotate(16 999 232)"/><g fill="#e7edff" font-family="Arial,sans-serif" font-size="14" letter-spacing="2"><text x="53" y="79">AN EXERCISE IN CREATIVE FREEDOM</text><text x="53" y="889">BREAK A PATTERN. FIND A POSSIBILITY.</text><text x="1097" y="889">004</text></g></svg>
